<mxfile host="app.diagrams.net" modified="2023-05-08T09:31:47.244Z" agent="Mozilla/5.0 (Windows NT 10.0; Win64; x64) AppleWebKit/537.36 (KHTML, like Gecko) Chrome/113.0.0.0 Safari/537.36 Edg/113.0.1774.35" etag="3gkHMs_mR7unJEuHP-xK" version="21.2.9" type="github">
  <diagram name="第 1 页" id="u9vZbVKsPIjHl3ITsTrV">
    <mxGraphModel dx="928" dy="579" grid="1" gridSize="10" guides="1" tooltips="1" connect="1" arrows="1" fold="1" page="1" pageScale="1" pageWidth="827" pageHeight="1169" math="0" shadow="0">
      <root>
        <mxCell id="0" />
        <mxCell id="1" parent="0" />
        <mxCell id="X6JolvUWCkyFC3o2Qyg5-1" value="&lt;b&gt;&lt;font style=&quot;font-size: 20px;&quot;&gt;8&lt;/font&gt;&lt;/b&gt;" style="whiteSpace=wrap;html=1;aspect=fixed;fillColor=#ffe6cc;strokeColor=#d79b00;" vertex="1" parent="1">
          <mxGeometry x="80" y="200" width="40" height="40" as="geometry" />
        </mxCell>
        <mxCell id="X6JolvUWCkyFC3o2Qyg5-2" value="&lt;b&gt;&lt;font style=&quot;font-size: 20px;&quot;&gt;1&lt;/font&gt;&lt;/b&gt;" style="whiteSpace=wrap;html=1;aspect=fixed;fillColor=#ffe6cc;strokeColor=#d79b00;" vertex="1" parent="1">
          <mxGeometry x="120" y="200" width="40" height="40" as="geometry" />
        </mxCell>
        <mxCell id="X6JolvUWCkyFC3o2Qyg5-3" value="&lt;b&gt;&lt;font style=&quot;font-size: 20px;&quot;&gt;7&lt;/font&gt;&lt;/b&gt;" style="whiteSpace=wrap;html=1;aspect=fixed;fillColor=#ffe6cc;strokeColor=#d79b00;" vertex="1" parent="1">
          <mxGeometry x="80" y="240" width="40" height="40" as="geometry" />
        </mxCell>
        <mxCell id="X6JolvUWCkyFC3o2Qyg5-4" value="&lt;b&gt;&lt;font style=&quot;font-size: 20px;&quot;&gt;4&lt;/font&gt;&lt;/b&gt;" style="whiteSpace=wrap;html=1;aspect=fixed;fillColor=#ffe6cc;strokeColor=#d79b00;" vertex="1" parent="1">
          <mxGeometry x="120" y="240" width="40" height="40" as="geometry" />
        </mxCell>
        <mxCell id="X6JolvUWCkyFC3o2Qyg5-5" value="&lt;b&gt;&lt;font style=&quot;font-size: 20px;&quot;&gt;4&lt;/font&gt;&lt;/b&gt;" style="whiteSpace=wrap;html=1;aspect=fixed;fillColor=#dae8fc;strokeColor=#6c8ebf;" vertex="1" parent="1">
          <mxGeometry y="200" width="40" height="40" as="geometry" />
        </mxCell>
        <mxCell id="X6JolvUWCkyFC3o2Qyg5-6" value="&lt;b&gt;&lt;font style=&quot;font-size: 20px;&quot;&gt;6&lt;/font&gt;&lt;/b&gt;" style="whiteSpace=wrap;html=1;aspect=fixed;fillColor=#dae8fc;strokeColor=#6c8ebf;" vertex="1" parent="1">
          <mxGeometry x="40" y="200" width="40" height="40" as="geometry" />
        </mxCell>
        <mxCell id="X6JolvUWCkyFC3o2Qyg5-7" value="&lt;b&gt;&lt;font style=&quot;font-size: 20px;&quot;&gt;3&lt;/font&gt;&lt;/b&gt;" style="whiteSpace=wrap;html=1;aspect=fixed;fillColor=#dae8fc;strokeColor=#6c8ebf;" vertex="1" parent="1">
          <mxGeometry y="240" width="40" height="40" as="geometry" />
        </mxCell>
        <mxCell id="X6JolvUWCkyFC3o2Qyg5-8" value="&lt;b&gt;&lt;font style=&quot;font-size: 20px;&quot;&gt;7&lt;/font&gt;&lt;/b&gt;" style="whiteSpace=wrap;html=1;aspect=fixed;fillColor=#dae8fc;strokeColor=#6c8ebf;" vertex="1" parent="1">
          <mxGeometry x="40" y="240" width="40" height="40" as="geometry" />
        </mxCell>
        <mxCell id="X6JolvUWCkyFC3o2Qyg5-9" value="&lt;b&gt;&lt;font style=&quot;font-size: 20px;&quot;&gt;2&lt;/font&gt;&lt;/b&gt;" style="whiteSpace=wrap;html=1;aspect=fixed;fillColor=#d5e8d4;strokeColor=#82b366;" vertex="1" parent="1">
          <mxGeometry y="280" width="40" height="40" as="geometry" />
        </mxCell>
        <mxCell id="X6JolvUWCkyFC3o2Qyg5-10" value="&lt;b&gt;&lt;font style=&quot;font-size: 20px;&quot;&gt;4&lt;/font&gt;&lt;/b&gt;" style="whiteSpace=wrap;html=1;aspect=fixed;fillColor=#d5e8d4;strokeColor=#82b366;" vertex="1" parent="1">
          <mxGeometry x="40" y="280" width="40" height="40" as="geometry" />
        </mxCell>
        <mxCell id="X6JolvUWCkyFC3o2Qyg5-11" value="&lt;b&gt;&lt;font style=&quot;font-size: 20px;&quot;&gt;3&lt;/font&gt;&lt;/b&gt;" style="whiteSpace=wrap;html=1;aspect=fixed;fillColor=#d5e8d4;strokeColor=#82b366;" vertex="1" parent="1">
          <mxGeometry y="320" width="40" height="40" as="geometry" />
        </mxCell>
        <mxCell id="X6JolvUWCkyFC3o2Qyg5-12" value="&lt;b&gt;&lt;font style=&quot;font-size: 20px;&quot;&gt;4&lt;/font&gt;&lt;/b&gt;" style="whiteSpace=wrap;html=1;aspect=fixed;fillColor=#d5e8d4;strokeColor=#82b366;" vertex="1" parent="1">
          <mxGeometry x="40" y="320" width="40" height="40" as="geometry" />
        </mxCell>
        <mxCell id="X6JolvUWCkyFC3o2Qyg5-13" value="&lt;b&gt;&lt;font style=&quot;font-size: 20px;&quot;&gt;1&lt;/font&gt;&lt;/b&gt;" style="whiteSpace=wrap;html=1;aspect=fixed;fillColor=#f8cecc;strokeColor=#b85450;" vertex="1" parent="1">
          <mxGeometry x="80" y="280" width="40" height="40" as="geometry" />
        </mxCell>
        <mxCell id="X6JolvUWCkyFC3o2Qyg5-14" value="&lt;b&gt;&lt;font style=&quot;font-size: 20px;&quot;&gt;4&lt;/font&gt;&lt;/b&gt;" style="whiteSpace=wrap;html=1;aspect=fixed;fillColor=#f8cecc;strokeColor=#b85450;" vertex="1" parent="1">
          <mxGeometry x="120" y="280" width="40" height="40" as="geometry" />
        </mxCell>
        <mxCell id="X6JolvUWCkyFC3o2Qyg5-15" value="&lt;b&gt;&lt;font style=&quot;font-size: 20px;&quot;&gt;2&lt;/font&gt;&lt;/b&gt;" style="whiteSpace=wrap;html=1;aspect=fixed;fillColor=#f8cecc;strokeColor=#b85450;" vertex="1" parent="1">
          <mxGeometry x="80" y="320" width="40" height="40" as="geometry" />
        </mxCell>
        <mxCell id="X6JolvUWCkyFC3o2Qyg5-16" value="&lt;b&gt;&lt;font style=&quot;font-size: 20px;&quot;&gt;3&lt;/font&gt;&lt;/b&gt;" style="whiteSpace=wrap;html=1;aspect=fixed;fillColor=#f8cecc;strokeColor=#b85450;" vertex="1" parent="1">
          <mxGeometry x="120" y="320" width="40" height="40" as="geometry" />
        </mxCell>
        <mxCell id="X6JolvUWCkyFC3o2Qyg5-21" value="&lt;font style=&quot;font-size: 16px;&quot;&gt;0.40&lt;/font&gt;" style="whiteSpace=wrap;html=1;aspect=fixed;fillColor=#dae8fc;strokeColor=#6c8ebf;" vertex="1" parent="1">
          <mxGeometry x="279" y="320" width="40" height="40" as="geometry" />
        </mxCell>
        <mxCell id="X6JolvUWCkyFC3o2Qyg5-33" value="&lt;font style=&quot;font-size: 16px;&quot;&gt;0.10&lt;/font&gt;" style="whiteSpace=wrap;html=1;aspect=fixed;fillColor=#dae8fc;strokeColor=#6c8ebf;" vertex="1" parent="1">
          <mxGeometry x="319" y="320" width="40" height="40" as="geometry" />
        </mxCell>
        <mxCell id="X6JolvUWCkyFC3o2Qyg5-34" value="&lt;font style=&quot;font-size: 16px;&quot;&gt;0.30&lt;/font&gt;" style="whiteSpace=wrap;html=1;aspect=fixed;fillColor=#dae8fc;strokeColor=#6c8ebf;" vertex="1" parent="1">
          <mxGeometry x="279" y="360" width="40" height="40" as="geometry" />
        </mxCell>
        <mxCell id="X6JolvUWCkyFC3o2Qyg5-35" value="&lt;font style=&quot;font-size: 16px;&quot;&gt;0.20&lt;/font&gt;" style="whiteSpace=wrap;html=1;aspect=fixed;fillColor=#dae8fc;strokeColor=#6c8ebf;" vertex="1" parent="1">
          <mxGeometry x="319" y="360" width="40" height="40" as="geometry" />
        </mxCell>
        <mxCell id="X6JolvUWCkyFC3o2Qyg5-36" value="&lt;font style=&quot;font-size: 16px;&quot;&gt;0.20&lt;/font&gt;" style="whiteSpace=wrap;html=1;aspect=fixed;fillColor=#ffe6cc;strokeColor=#d79b00;" vertex="1" parent="1">
          <mxGeometry x="359" y="320" width="40" height="40" as="geometry" />
        </mxCell>
        <mxCell id="X6JolvUWCkyFC3o2Qyg5-37" value="&lt;font style=&quot;font-size: 16px;&quot;&gt;0.40&lt;/font&gt;" style="whiteSpace=wrap;html=1;aspect=fixed;fillColor=#ffe6cc;strokeColor=#d79b00;" vertex="1" parent="1">
          <mxGeometry x="399" y="320" width="40" height="40" as="geometry" />
        </mxCell>
        <mxCell id="X6JolvUWCkyFC3o2Qyg5-38" value="&lt;font style=&quot;font-size: 16px;&quot;&gt;0.20&lt;/font&gt;" style="whiteSpace=wrap;html=1;aspect=fixed;fillColor=#ffe6cc;strokeColor=#d79b00;" vertex="1" parent="1">
          <mxGeometry x="359" y="360" width="40" height="40" as="geometry" />
        </mxCell>
        <mxCell id="X6JolvUWCkyFC3o2Qyg5-39" value="&lt;font style=&quot;font-size: 16px;&quot;&gt;0.20&lt;/font&gt;" style="whiteSpace=wrap;html=1;aspect=fixed;fillColor=#ffe6cc;strokeColor=#d79b00;" vertex="1" parent="1">
          <mxGeometry x="399" y="360" width="40" height="40" as="geometry" />
        </mxCell>
        <mxCell id="X6JolvUWCkyFC3o2Qyg5-40" value="&lt;font style=&quot;font-size: 16px;&quot;&gt;0.35&lt;/font&gt;" style="whiteSpace=wrap;html=1;aspect=fixed;fillColor=#d5e8d4;strokeColor=#82b366;" vertex="1" parent="1">
          <mxGeometry x="279" y="400" width="40" height="40" as="geometry" />
        </mxCell>
        <mxCell id="X6JolvUWCkyFC3o2Qyg5-41" value="&lt;font style=&quot;font-size: 16px;&quot;&gt;0.40&lt;/font&gt;" style="whiteSpace=wrap;html=1;aspect=fixed;fillColor=#d5e8d4;strokeColor=#82b366;" vertex="1" parent="1">
          <mxGeometry x="319" y="400" width="40" height="40" as="geometry" />
        </mxCell>
        <mxCell id="X6JolvUWCkyFC3o2Qyg5-42" value="&lt;font style=&quot;font-size: 16px;&quot;&gt;0.20&lt;/font&gt;" style="whiteSpace=wrap;html=1;aspect=fixed;fillColor=#d5e8d4;strokeColor=#82b366;" vertex="1" parent="1">
          <mxGeometry x="279" y="440" width="40" height="40" as="geometry" />
        </mxCell>
        <mxCell id="X6JolvUWCkyFC3o2Qyg5-43" value="&lt;font style=&quot;font-size: 16px;&quot;&gt;0.05&lt;/font&gt;" style="whiteSpace=wrap;html=1;aspect=fixed;fillColor=#d5e8d4;strokeColor=#82b366;" vertex="1" parent="1">
          <mxGeometry x="319" y="440" width="40" height="40" as="geometry" />
        </mxCell>
        <mxCell id="X6JolvUWCkyFC3o2Qyg5-44" value="&lt;font style=&quot;font-size: 16px;&quot;&gt;0.20&lt;/font&gt;" style="whiteSpace=wrap;html=1;aspect=fixed;fillColor=#f8cecc;strokeColor=#b85450;" vertex="1" parent="1">
          <mxGeometry x="359" y="400" width="40" height="40" as="geometry" />
        </mxCell>
        <mxCell id="X6JolvUWCkyFC3o2Qyg5-45" value="&lt;font style=&quot;font-size: 16px;&quot;&gt;0.15&lt;/font&gt;" style="whiteSpace=wrap;html=1;aspect=fixed;fillColor=#f8cecc;strokeColor=#b85450;" vertex="1" parent="1">
          <mxGeometry x="399" y="400" width="40" height="40" as="geometry" />
        </mxCell>
        <mxCell id="X6JolvUWCkyFC3o2Qyg5-46" value="&lt;font style=&quot;font-size: 16px;&quot;&gt;0.30&lt;/font&gt;" style="whiteSpace=wrap;html=1;aspect=fixed;fillColor=#f8cecc;strokeColor=#b85450;" vertex="1" parent="1">
          <mxGeometry x="359" y="440" width="40" height="40" as="geometry" />
        </mxCell>
        <mxCell id="X6JolvUWCkyFC3o2Qyg5-47" value="&lt;font style=&quot;font-size: 16px;&quot;&gt;0.35&lt;/font&gt;" style="whiteSpace=wrap;html=1;aspect=fixed;fillColor=#f8cecc;strokeColor=#b85450;" vertex="1" parent="1">
          <mxGeometry x="399" y="440" width="40" height="40" as="geometry" />
        </mxCell>
        <mxCell id="X6JolvUWCkyFC3o2Qyg5-48" value="&lt;b&gt;&lt;font style=&quot;font-size: 20px;&quot;&gt;6&lt;/font&gt;&lt;/b&gt;" style="whiteSpace=wrap;html=1;aspect=fixed;fillColor=#dae8fc;strokeColor=#6c8ebf;" vertex="1" parent="1">
          <mxGeometry x="559" y="360" width="40" height="40" as="geometry" />
        </mxCell>
        <mxCell id="X6JolvUWCkyFC3o2Qyg5-49" value="&lt;b&gt;&lt;font style=&quot;font-size: 20px;&quot;&gt;8&lt;/font&gt;&lt;/b&gt;" style="whiteSpace=wrap;html=1;aspect=fixed;fillColor=#ffe6cc;strokeColor=#d79b00;" vertex="1" parent="1">
          <mxGeometry x="599" y="360" width="40" height="40" as="geometry" />
        </mxCell>
        <mxCell id="X6JolvUWCkyFC3o2Qyg5-50" value="&lt;b&gt;&lt;font style=&quot;font-size: 20px;&quot;&gt;4&lt;/font&gt;&lt;/b&gt;" style="whiteSpace=wrap;html=1;aspect=fixed;fillColor=#d5e8d4;strokeColor=#82b366;" vertex="1" parent="1">
          <mxGeometry x="559" y="400" width="40" height="40" as="geometry" />
        </mxCell>
        <mxCell id="X6JolvUWCkyFC3o2Qyg5-51" value="&lt;b&gt;&lt;font style=&quot;font-size: 20px;&quot;&gt;3&lt;/font&gt;&lt;/b&gt;" style="whiteSpace=wrap;html=1;aspect=fixed;fillColor=#f8cecc;strokeColor=#b85450;" vertex="1" parent="1">
          <mxGeometry x="599" y="400" width="40" height="40" as="geometry" />
        </mxCell>
        <mxCell id="X6JolvUWCkyFC3o2Qyg5-52" value="&lt;b&gt;&lt;font style=&quot;font-size: 20px;&quot;&gt;5&lt;/font&gt;&lt;/b&gt;" style="whiteSpace=wrap;html=1;aspect=fixed;fillColor=#dae8fc;strokeColor=#6c8ebf;" vertex="1" parent="1">
          <mxGeometry x="559" y="200" width="40" height="40" as="geometry" />
        </mxCell>
        <mxCell id="X6JolvUWCkyFC3o2Qyg5-53" value="&lt;b&gt;&lt;font style=&quot;font-size: 20px;&quot;&gt;5&lt;/font&gt;&lt;/b&gt;" style="whiteSpace=wrap;html=1;aspect=fixed;fillColor=#ffe6cc;strokeColor=#d79b00;" vertex="1" parent="1">
          <mxGeometry x="599" y="200" width="40" height="40" as="geometry" />
        </mxCell>
        <mxCell id="X6JolvUWCkyFC3o2Qyg5-54" value="&lt;span style=&quot;font-size: 20px;&quot;&gt;&lt;b&gt;3.25&lt;/b&gt;&lt;/span&gt;" style="whiteSpace=wrap;html=1;aspect=fixed;fillColor=#d5e8d4;strokeColor=#82b366;" vertex="1" parent="1">
          <mxGeometry x="559" y="240" width="40" height="40" as="geometry" />
        </mxCell>
        <mxCell id="X6JolvUWCkyFC3o2Qyg5-55" value="&lt;b&gt;&lt;font style=&quot;font-size: 20px;&quot;&gt;2.5&lt;/font&gt;&lt;/b&gt;" style="whiteSpace=wrap;html=1;aspect=fixed;fillColor=#f8cecc;strokeColor=#b85450;" vertex="1" parent="1">
          <mxGeometry x="599" y="240" width="40" height="40" as="geometry" />
        </mxCell>
        <mxCell id="X6JolvUWCkyFC3o2Qyg5-56" value="&lt;b&gt;&lt;font style=&quot;font-size: 20px;&quot;&gt;7&lt;/font&gt;&lt;/b&gt;" style="whiteSpace=wrap;html=1;aspect=fixed;fillColor=#dae8fc;strokeColor=#6c8ebf;" vertex="1" parent="1">
          <mxGeometry x="559" y="80" width="40" height="40" as="geometry" />
        </mxCell>
        <mxCell id="X6JolvUWCkyFC3o2Qyg5-57" value="&lt;b&gt;&lt;font style=&quot;font-size: 20px;&quot;&gt;8&lt;/font&gt;&lt;/b&gt;" style="whiteSpace=wrap;html=1;aspect=fixed;fillColor=#ffe6cc;strokeColor=#d79b00;" vertex="1" parent="1">
          <mxGeometry x="599" y="80" width="40" height="40" as="geometry" />
        </mxCell>
        <mxCell id="X6JolvUWCkyFC3o2Qyg5-58" value="&lt;b&gt;&lt;font style=&quot;font-size: 20px;&quot;&gt;4&lt;/font&gt;&lt;/b&gt;" style="whiteSpace=wrap;html=1;aspect=fixed;fillColor=#d5e8d4;strokeColor=#82b366;" vertex="1" parent="1">
          <mxGeometry x="559" y="120" width="40" height="40" as="geometry" />
        </mxCell>
        <mxCell id="X6JolvUWCkyFC3o2Qyg5-59" value="&lt;b&gt;&lt;font style=&quot;font-size: 20px;&quot;&gt;4&lt;/font&gt;&lt;/b&gt;" style="whiteSpace=wrap;html=1;aspect=fixed;fillColor=#f8cecc;strokeColor=#b85450;" vertex="1" parent="1">
          <mxGeometry x="599" y="120" width="40" height="40" as="geometry" />
        </mxCell>
        <mxCell id="X6JolvUWCkyFC3o2Qyg5-60" value="" style="endArrow=classic;html=1;rounded=0;strokeWidth=2;" edge="1" parent="1">
          <mxGeometry width="50" height="50" relative="1" as="geometry">
            <mxPoint x="279" y="120" as="sourcePoint" />
            <mxPoint x="519" y="120" as="targetPoint" />
          </mxGeometry>
        </mxCell>
        <mxCell id="X6JolvUWCkyFC3o2Qyg5-63" value="&lt;b&gt;&lt;font style=&quot;font-size: 16px;&quot;&gt;最大池化&lt;/font&gt;&lt;/b&gt;" style="text;html=1;strokeColor=none;fillColor=none;align=center;verticalAlign=middle;whiteSpace=wrap;rounded=0;" vertex="1" parent="1">
          <mxGeometry x="359" y="90" width="70" height="30" as="geometry" />
        </mxCell>
        <mxCell id="X6JolvUWCkyFC3o2Qyg5-64" value="" style="endArrow=classic;html=1;rounded=0;strokeWidth=2;" edge="1" parent="1">
          <mxGeometry width="50" height="50" relative="1" as="geometry">
            <mxPoint x="279" y="239" as="sourcePoint" />
            <mxPoint x="519" y="239" as="targetPoint" />
          </mxGeometry>
        </mxCell>
        <mxCell id="X6JolvUWCkyFC3o2Qyg5-65" value="&lt;b&gt;&lt;font style=&quot;font-size: 16px;&quot;&gt;平均池化&lt;/font&gt;&lt;/b&gt;" style="text;html=1;strokeColor=none;fillColor=none;align=center;verticalAlign=middle;whiteSpace=wrap;rounded=0;" vertex="1" parent="1">
          <mxGeometry x="359" y="209" width="70" height="30" as="geometry" />
        </mxCell>
        <mxCell id="X6JolvUWCkyFC3o2Qyg5-66" value="" style="endArrow=classic;html=1;rounded=0;strokeWidth=2;" edge="1" parent="1">
          <mxGeometry width="50" height="50" relative="1" as="geometry">
            <mxPoint x="459" y="399" as="sourcePoint" />
            <mxPoint x="539" y="399" as="targetPoint" />
          </mxGeometry>
        </mxCell>
        <mxCell id="X6JolvUWCkyFC3o2Qyg5-67" value="&lt;b&gt;&lt;font style=&quot;font-size: 16px;&quot;&gt;随机&lt;/font&gt;&lt;/b&gt;" style="text;html=1;strokeColor=none;fillColor=none;align=center;verticalAlign=middle;whiteSpace=wrap;rounded=0;" vertex="1" parent="1">
          <mxGeometry x="469" y="369" width="50" height="30" as="geometry" />
        </mxCell>
        <mxCell id="X6JolvUWCkyFC3o2Qyg5-68" value="" style="endArrow=classic;html=1;rounded=0;strokeWidth=2;exitX=0;exitY=1;exitDx=0;exitDy=0;" edge="1" parent="1" source="X6JolvUWCkyFC3o2Qyg5-69">
          <mxGeometry width="50" height="50" relative="1" as="geometry">
            <mxPoint x="179" y="400" as="sourcePoint" />
            <mxPoint x="269" y="399" as="targetPoint" />
          </mxGeometry>
        </mxCell>
        <mxCell id="X6JolvUWCkyFC3o2Qyg5-69" value="&lt;b&gt;&lt;font style=&quot;font-size: 16px;&quot;&gt;概率矩阵&lt;/font&gt;&lt;/b&gt;" style="text;html=1;strokeColor=none;fillColor=none;align=center;verticalAlign=middle;whiteSpace=wrap;rounded=0;" vertex="1" parent="1">
          <mxGeometry x="189" y="368" width="70" height="31" as="geometry" />
        </mxCell>
        <mxCell id="X6JolvUWCkyFC3o2Qyg5-70" value="" style="shape=curlyBracket;whiteSpace=wrap;html=1;rounded=1;labelPosition=left;verticalLabelPosition=middle;align=right;verticalAlign=middle;strokeWidth=2;" vertex="1" parent="1">
          <mxGeometry x="169" y="80" width="20" height="400" as="geometry" />
        </mxCell>
      </root>
    </mxGraphModel>
  </diagram>
</mxfile>
